<svg xmlns="http://www.w3.org/2000/svg" xmlns:xlink="http://www.w3.org/1999/xlink" width="327" height="327"><defs><path id="a" d="M.072.479h22.67v162.89H.072z"/><path id="c" d="M.431.479h162.89v317.807H.43z"/></defs><g fill="none" fill-rule="evenodd" transform="translate(-44 -43)"><g transform="rotate(-162 118.485 170.362)"><mask id="b" fill="#fff"><use xlink:href="#a"/></mask><path fill="#7E7E7E" d="M22.742 163.369L.072 2.064C7.199 1.063 15.545.479 22.742.479v162.89z" mask="url(#b)"/></g><path fill="#E9FDFC" d="M206.952 206.43l113.152 117.174c-38.827 37.495-88.28 52.615-141.437 43.242l28.285-160.415z"/><path fill="#3A6FE4" d="M207.46 206.355V43.465c89.963 0 162.89 72.928 162.89 162.89.001 46.78-16.086 84.676-49.737 117.173L207.461 206.355z"/><g transform="rotate(-162 107.33 168.595)"><mask id="d" fill="#fff"><use xlink:href="#c"/></mask><path fill="#FFA96A" d="M.431 163.369V.479c89.961 0 162.89 72.929 162.89 162.89 0 71.97-44.107 132.677-112.554 154.917L.43 163.369z" mask="url(#d)"/></g><circle cx="207.5" cy="207.5" r="121.5" fill="#FFF" fill-opacity=".09" transform="rotate(180 207.5 207.5)"/><circle cx="208" cy="208" r="98" fill="#333332" transform="rotate(180 208 208)"/></g></svg>