<svg xmlns="http://www.w3.org/2000/svg" xmlns:xlink="http://www.w3.org/1999/xlink" width="49" height="49"><defs><path id="a" d="M0 .025h7.447v18.987H0z"/><path id="c" d="M.005.018h7.36v15.459H.005z"/></defs><g fill="none" fill-rule="evenodd"><circle cx="24.5" cy="24.5" r="24.5" fill="#FFF"/><g transform="translate(13.475 13.533)"><mask id="b" fill="#fff"><use xlink:href="#a"/></mask><path fill="#58595B" d="M7.367 18.686c-.067.302-.298.407-.594.26-.512-.252-1.02-.51-1.531-.765-1.587-.793-3.173-1.587-4.76-2.378-.32-.16-.482-.407-.482-.768C.002 10.152.001 5.27.001.387.001.033.157-.059.474.1c1.397.698 2.794 1.393 4.19 2.09.859.428 1.717.856 2.574 1.286.046.023.084.06.125.09a.5.5 0 0 1 .084.31v7.755c-.148 1.15-.045 2.306-.064 3.46-.019 1.157-.004 2.314-.004 3.472 0 .041.007.083-.012.123" mask="url(#b)"/></g><path fill="#A5A7AA" d="M28.253 29.092c-.025.003-.047.001-.061-.023-.996-1.6-1.972-3.21-2.963-4.812a523.158 523.158 0 0 1-1.77-2.878c-.031-.051-.085-.095-.064-.167.162-.138.237-.336.345-.51.929-1.498 1.852-3 2.776-4.501.519-.843 1.036-1.688 1.555-2.532.129-.21.231-.242.45-.132.938.466 1.873.937 2.81 1.404.81.404 1.625.805 2.436 1.21.557.277 1.111.559 1.666.84.04.02.074.055.111.082.075.099.026.186-.026.272-.267.44-.537.876-.807 1.314-.596.962-1.183 1.93-1.78 2.892-1.013 1.633-2.01 3.275-3.022 4.908-.514.83-1.022 1.663-1.536 2.494-.033.053-.06.11-.12.139"/><g transform="translate(28.248 17.055)"><mask id="d" fill="#fff"><use xlink:href="#c"/></mask><path fill="#CFD1D2" d="M.005 12.037c.293-.482.584-.966.88-1.446.65-1.06 1.302-2.119 1.954-3.178.578-.94 1.158-1.878 1.737-2.818l1.742-2.833c.31-.503.616-1.008.93-1.509a.324.324 0 0 0 .048-.235c.058.014.067.059.068.108v14.798c0 .536-.234.681-.71.44-.89-.447-1.778-.899-2.67-1.344-.913-.457-1.83-.907-2.744-1.362-.413-.205-.823-.414-1.235-.621" mask="url(#d)"/></g><path fill="#7F8083" d="M23.395 21.212l1.475 2.392c.533.864 1.064 1.729 1.596 2.593l1.718 2.79c.014.023.042.051.008.082l-7.327-3.663v6.616c0 .065.018.135-.023.197-.002-.042-.006-.083-.006-.124 0-2.182-.029-4.363.007-6.544.045-2.73.005-5.46.026-8.19a.797.797 0 0 0-.03-.262c.051.023.072.073.098.116l2.458 3.997"/></g></svg>