<svg xmlns="http://www.w3.org/2000/svg" width="40" height="39"><g fill="none" fill-rule="evenodd" transform="translate(.2)"><circle cx="19.5" cy="19.5" r="19.5" fill="#FFF"/><path fill="#000" d="M27.33 14.272a7.13 7.13 0 0 1-1.962.538 3.385 3.385 0 0 0 1.497-1.882 6.803 6.803 0 0 1-2.158.824 3.403 3.403 0 0 0-5.888 2.328c0 .27.022.53.078.776a9.635 9.635 0 0 1-7.016-3.56 3.409 3.409 0 0 0 1.046 4.55 3.362 3.362 0 0 1-1.538-.42v.037a3.42 3.42 0 0 0 2.727 3.345 3.385 3.385 0 0 1-.892.112 3.01 3.01 0 0 1-.645-.058 3.436 3.436 0 0 0 3.181 2.371 6.84 6.84 0 0 1-4.22 1.452 6.24 6.24 0 0 1-.815-.047 9.583 9.583 0 0 0 5.222 1.528c6.264 0 9.689-5.189 9.689-9.687 0-.15-.006-.295-.013-.44a6.79 6.79 0 0 0 1.706-1.767"/></g></svg>