<svg xmlns="http://www.w3.org/2000/svg" width="480.8" height="143.5"><path fill="#FFF" d="M245.1 19.7h7.2v-1.8l-1.8-1.8h-9l-1.8 1.8v14.4l1.8 1.8h9l1.8-1.8v-1.8h-7.2v-3.6h7.2v-3.6h-7.2z"/><path fill="#05E7FF" d="M240.9 0h10.2v10.2h-10.2z"/><path fill="#FFF" d="M231.3 16.1v7.2h-5.4v-7.2h-3.6l-1.8 1.8v14.4l1.8 1.8h3.6v-7.2h5.4v7.2h3.6l1.8-1.8V17.9l-1.8-1.8zM203.1 16.1l-1.8 1.8v1.8h5.4v12.6l1.8 1.8h1.8l1.8-1.8V19.7h5.4v-1.8l-1.8-1.8zM7.2 40.3L0 47.5v28.8l7.2 7.2H36v14.4H21.6v-7.2H0v14.4l7.2 7.2h43.2l7.2-7.2V76.3l-7.2-7.2H21.6V54.7H36v7.2h21.6V47.5l-7.2-7.2zM201.6 40.3v72H252l7.2-7.2V47.5l-7.2-7.2h-50.4zm21.6 14.4h14.4v43.2h-14.4V54.7zM266.4 40.3v72h50.4l7.2-7.2V83.5l-7.2-7.2 7.2-7.2V47.5l-7.2-7.2h-50.4zM288 83.5h14.4v14.4H288V83.5m0-14.4V54.7h14.4v14.4H288zM338.4 40.3l-7.2 7.2v57.6l7.2 7.2h43.2l7.2-7.2V47.5l-7.2-7.2h-43.2zm14.4 14.4h14.4v43.2h-14.4V54.7z"/><path fill="#05E7FF" d="M453.626 76.3l13.577-13.576L480.779 76.3l-13.576 13.576zM79.228 129.897l13.577-13.576 13.576 13.576-13.576 13.576z"/><path fill="#FFF" d="M432 40.3v21.6l-7.2 7.2-7.2-7.2V40.3h-14.4l-7.2 7.2v21.6l7.2 7.2-7.2 7.2v21.6l7.2 7.2h14.4V90.7l7.2-7.2 7.2 7.2v21.6h14.4l7.2-7.2V83.5l-7.2-7.2 7.2-7.2V47.5l-7.2-7.2zM172.8 40.3v21.6l-21.6-21.6h-14.4l-7.2 7.2v57.6l7.2 7.2h14.4V69.1l21.6 21.6v21.6h14.4l7.2-7.2V47.5l-7.2-7.2zM115.2 40.5H72l-7.2 7.2v57.6l7.2 7.2h14.4V83.7h14.4v28.8h14.4l7.2-7.2V47.7l-7.2-7.2zM93.6 71.9l-9.2-9.2 9.2-9.2 9.2 9.2-9.2 9.2z"/></svg>