<?xml version="1.0" encoding="UTF-8"?>
<svg width="33px" height="33px" viewBox="0 0 33 33" version="1.1" xmlns="http://www.w3.org/2000/svg" xmlns:xlink="http://www.w3.org/1999/xlink">
    <!-- Generator: sketchtool 50.2 (55047) - http://www.bohemiancoding.com/sketch -->
    <title>0683B9F8-595F-4657-923C-65C890A8DA4C</title>
    <desc>Created with sketchtool.</desc>
    <defs></defs>
    <g id="Landing" stroke="none" stroke-width="1" fill="none" fill-rule="evenodd" fill-opacity="0.3">
        <g id="The-Sandbox---UI-MOBILE" transform="translate(-334.000000, -14389.000000)" fill="#FFFFFF">
            <g id="Group-19-Copy-2" transform="translate(11.000000, 14118.000000)">
                <path d="M348.158491,288.466458 L338.404813,298.221028 C338.131881,298.492968 337.809835,298.629432 337.438015,298.629432 C337.065866,298.629432 336.742501,298.492968 336.470888,298.221028 L334.279524,296.029686 C334.007581,295.756757 333.871116,295.434714 333.871116,295.062569 C333.871116,294.690423 334.007581,294.367391 334.279524,294.095781 L340.8757,287.500659 L334.279524,280.904219 C334.007581,280.632609 333.871116,280.309577 333.871116,279.937431 C333.871116,279.565286 334.007581,279.243243 334.279524,278.970314 L336.470888,276.778972 C336.742501,276.507032 337.064547,276.370568 337.438015,276.370568 C337.809835,276.370568 338.131881,276.507032 338.404813,276.778972 L348.158491,286.533542 C348.431422,286.805482 348.56624,287.127195 348.56624,287.499341 C348.56624,287.872805 348.431422,288.194518 348.158491,288.466458 M353.78787,279.217532 C352.312457,276.689973 350.311288,274.689154 347.782386,273.213427 C345.254802,271.738029 342.494172,271 339.500494,271 C336.506817,271 333.746187,271.738029 331.218603,273.213427 C328.689701,274.687836 326.688862,276.689973 325.213449,279.217532 C323.737706,281.746409 323,284.507012 323,287.500659 C323,290.492988 323.737706,293.253591 325.213449,295.782468 C326.688862,298.310027 328.689701,300.312164 331.217284,301.786573 C333.746187,303.261971 336.506817,304 339.500494,304 C342.494172,304 345.254802,303.261971 347.782386,301.786573 C350.30997,300.312164 352.312457,298.310027 353.78787,295.782468 C355.262294,293.253591 356,290.492988 356,287.500659 C356,284.507012 355.262294,281.745091 353.78787,279.217532" id="arrow-copy-4"></path>
            </g>
        </g>
    </g>
</svg>