<?xml version="1.0" encoding="UTF-8"?>
<svg width="361px" height="412px" viewBox="0 0 361 412" version="1.1" xmlns="http://www.w3.org/2000/svg" xmlns:xlink="http://www.w3.org/1999/xlink">
    <!-- Generator: Sketch 51 (57462) - http://www.bohemiancoding.com/sketch -->
    <title>1000</title>
    <desc>Created with Sketch.</desc>
    <defs>
        <linearGradient x1="50%" y1="0%" x2="50%" y2="100%" id="linearGradient-1">
            <stop stop-color="#F6F8FB" offset="0%"></stop>
            <stop stop-color="#FEFFFF" offset="100%"></stop>
        </linearGradient>
    </defs>
    <g id="Landing" stroke="none" stroke-width="1" fill="none" fill-rule="evenodd">
        <g id="The-Sandbox-Landing---UI" transform="translate(-227.000000, -7544.000000)">
            <rect fill="#FFFFFF" x="0" y="0" width="1600" height="16179"></rect>
            <g id="1000" transform="translate(227.000000, 7544.000000)">
                <rect id="Rectangle-13" fill="url(#linearGradient-1)" x="0" y="85" width="360.86" height="327"></rect>
                <path d="M16.1150366,70.2369634 L150.985073,7.44714712 C161.264583,2.66143946 166.062492,1.42431775 171.830347,0.610421895 C177.598202,-0.203473965 183.496858,-0.203473965 189.264712,0.610421895 C195.032567,1.42431775 199.830476,2.66143946 210.109987,7.44714712 L344.980023,70.2369634 C355.259533,75.0226711 357.916821,77.2563758 359.665038,79.9416464 C361.413254,82.6269169 361.413254,85.3730831 359.665038,88.0583536 C357.916821,90.7436242 355.259533,92.9773289 344.980023,97.7630366 L210.109987,160.552853 C199.830476,165.338561 195.032567,166.575682 189.264712,167.389578 C183.496858,168.203474 177.598202,168.203474 171.830347,167.389578 C166.062492,166.575682 161.264583,165.338561 150.985073,160.552853 L16.1150366,97.7630366 C5.83552628,92.9773289 3.1782379,90.7436242 1.43002186,88.0583536 C-0.318194184,85.3730831 -0.318194184,82.6269169 1.43002186,79.9416464 C3.1782379,77.2563758 5.83552628,75.0226711 16.1150366,70.2369634 Z" id="Rectangle-12-Copy-11" fill="#FFFFFF"></path>
            </g>
        </g>
    </g>
</svg>