<svg xmlns="http://www.w3.org/2000/svg" width="558" height="556"><g fill="none" fill-rule="evenodd" transform="translate(1 1)"><path fill="#464648" d="M277.364 277l38.17 274.304c-12 1.703-26.053 2.696-38.17 2.696V277z"/><path stroke="#231F20" stroke-width=".5" d="M277.364 277l38.17 274.304c-12 1.703-26.053 2.696-38.17 2.696V277z"/><path fill="#ABAEB0" d="M277.364 277L440.22 501.224c-39.615 28.79-75.806 43.418-124.296 50.235L277.364 277z"/><path stroke="#BE808D" stroke-width=".5" d="M277.364 277L440.22 501.224c-39.615 28.79-75.806 43.418-124.296 50.235L277.364 277z"/><path fill="#7E7E7E" d="M277.364 277l264.64 85.906c-18.995 58.407-51.352 102.9-101.083 138.998L277.364 277z"/><path stroke="#231F20" stroke-width=".5" d="M277.364 277l264.64 85.906c-18.995 58.407-51.352 102.9-101.083 138.998L277.364 277z"/><path fill="#E9FDFC" d="M277.364 277.635l264.402-85.768c18.979 58.314 18.979 113.222 0 171.537l-264.402-85.769z"/><path stroke="#231F20" stroke-width=".5" d="M277.364 277.635l264.402-85.768c18.979 58.314 18.979 113.222 0 171.537l-264.402-85.769z"/><path fill="#3A6FE4" d="M277.364 277V0c122.943 0 226.65 75.006 264.64 191.402L277.365 277z"/><path stroke="#231F20" stroke-width=".5" d="M277.364 277V0c122.943 0 226.65 75.006 264.64 191.402L277.365 277z"/><path fill="#FFA96A" d="M277.364 277v277C124.18 554 0 429.983 0 277S124.18 0 277.364 0v277z"/><path stroke="#231F20" stroke-width=".5" d="M277.364 277v277C124.18 554 0 429.983 0 277S124.18 0 277.364 0v277z"/><ellipse cx="278" cy="277.85" fill="#FFF" fill-opacity=".09" rx="206.587" ry="206.475" transform="rotate(180 278 277.85)"/><ellipse cx="278.85" cy="278.699" fill="#333332" rx="166.63" ry="166.54" transform="rotate(180 278.85 278.7)"/></g></svg>