<svg xmlns="http://www.w3.org/2000/svg" width="49" height="49"><g fill="none" fill-rule="evenodd"><circle cx="24.5" cy="24.5" r="24.5" fill="#FFF"/><path fill="#231F20" d="M21.377 25.39l9.312-5.736c.167-.103.34.124.196.257l-7.686 7.144c-.27.25-.444.587-.493.953l-.262 1.94c-.035.259-.398.284-.47.034l-1.007-3.538a.937.937 0 0 1 .41-1.055m-6.312-.831l4.765 1.778 1.844 5.93a.56.56 0 0 0 .891.269l2.656-2.165a.792.792 0 0 1 .966-.027l4.79 3.478c.33.24.797.059.88-.34l3.509-16.88a.562.562 0 0 0-.752-.637L15.06 23.507a.562.562 0 0 0 .005 1.05"/></g></svg>