<svg xmlns="http://www.w3.org/2000/svg" width="49" height="49"><g fill="none" fill-rule="evenodd"><circle cx="24.5" cy="24.5" r="24.5" fill="#FFF"/><path fill="#000" d="M34.337 17.932a8.917 8.917 0 0 1-2.465.675 4.253 4.253 0 0 0 1.882-2.364 8.547 8.547 0 0 1-2.712 1.035 4.276 4.276 0 0 0-7.398 2.925c0 .339.028.665.099.975-3.556-.173-6.702-1.877-8.816-4.473a4.306 4.306 0 0 0-.585 2.162c0 1.48.763 2.794 1.9 3.554a4.224 4.224 0 0 1-1.933-.527v.047a4.297 4.297 0 0 0 3.427 4.202 4.236 4.236 0 0 1-1.121.141c-.274 0-.55-.015-.81-.073.554 1.694 2.127 2.939 3.996 2.98a8.594 8.594 0 0 1-5.302 1.824 8.01 8.01 0 0 1-1.024-.06 12.04 12.04 0 0 0 6.561 1.92c7.87 0 12.173-6.52 12.173-12.17 0-.19-.007-.372-.016-.553a8.532 8.532 0 0 0 2.144-2.22"/></g></svg>