<svg width="31" height="31" xmlns="http://www.w3.org/2000/svg"><g fill="none" fill-rule="evenodd"><circle fill="#FFF" cx="15.5" cy="15.5" r="15.5"/><path d="M8.198 22.845h3.33V12.829h-3.33v10.016zM9.884 8C8.745 8 8 8.748 8 9.73c0 .962.724 1.732 1.84 1.732h.023c1.161 0 1.883-.77 1.883-1.732C11.725 8.748 11.024 8 9.884 8zm13.651 9.1v5.745h-3.33v-5.359c0-1.346-.481-2.265-1.686-2.265-.92 0-1.468.619-1.709 1.218-.088.214-.11.512-.11.812v5.594h-3.331s.045-9.077 0-10.016h3.33v1.419l-.021.033h.022v-.033c.442-.681 1.232-1.655 3-1.655 2.192 0 3.835 1.432 3.835 4.508z" fill="#000"/></g></svg>