<svg xmlns="http://www.w3.org/2000/svg" xmlns:xlink="http://www.w3.org/1999/xlink" width="40" height="39"><defs><path id="a" d="M0 .02h5.927v15.112H0z"/><path id="c" d="M.004.015h5.858v12.303H.004z"/></defs><g fill="none" fill-rule="evenodd" transform="translate(.6)"><circle cx="19.5" cy="19.5" r="19.5" fill="#FFF"/><g transform="translate(10.725 10.771)"><mask id="b" fill="#fff"><use xlink:href="#a"/></mask><path fill="#58595B" d="M5.863 14.872c-.053.24-.237.324-.473.208-.407-.201-.812-.406-1.218-.61-1.263-.63-2.525-1.262-3.789-1.892C.13 12.45 0 12.254 0 11.966L.001.308c0-.282.124-.355.376-.228l3.335 1.663c.684.34 1.367.682 2.05 1.024.035.018.066.047.099.071a.398.398 0 0 1 .066.247v6.172c-.118.916-.036 1.836-.05 2.754-.016.92-.004 1.842-.004 2.764 0 .032.006.066-.01.097" mask="url(#b)"/></g><path fill="#A5A7AA" d="M22.487 23.155c-.02.002-.038 0-.049-.019-.792-1.272-1.57-2.554-2.358-3.83a416.39 416.39 0 0 1-1.409-2.29c-.024-.04-.068-.076-.05-.133.128-.11.188-.267.274-.405.74-1.193 1.474-2.388 2.21-3.583l1.237-2.016c.103-.167.184-.192.36-.105l2.234 1.118c.646.322 1.294.64 1.94.962.443.221.884.446 1.326.67.032.016.059.043.088.065.06.078.02.148-.02.216-.213.35-.428.698-.643 1.046-.474.766-.941 1.536-1.416 2.302-.807 1.3-1.6 2.606-2.406 3.906-.41.66-.814 1.324-1.222 1.985-.026.042-.049.087-.096.11"/><g transform="translate(22.483 13.574)"><mask id="d" fill="#fff"><use xlink:href="#c"/></mask><path fill="#CFD1D2" d="M.004 9.58c.233-.383.465-.768.7-1.15L2.259 5.9c.46-.748.923-1.495 1.383-2.243.463-.751.924-1.503 1.386-2.255.247-.4.491-.802.74-1.2a.258.258 0 0 0 .04-.187c.046.01.052.046.053.085v11.78c0 .426-.186.541-.565.35-.708-.357-1.415-.716-2.125-1.07-.727-.364-1.456-.722-2.184-1.084-.328-.163-.655-.33-.983-.495" mask="url(#d)"/></g><path fill="#7F8083" d="M18.62 16.883l1.175 1.904 1.27 2.063 1.367 2.221c.011.019.034.041.006.065l-5.831-2.915v5.266c0 .052.014.107-.019.157-.001-.033-.004-.066-.004-.1 0-1.735-.023-3.472.005-5.208.036-2.173.004-4.346.021-6.519 0-.07-.002-.14-.024-.207.041.017.057.058.078.092.653 1.06 1.304 2.12 1.956 3.181"/></g></svg>